<?xml version="1.0" encoding="UTF-8" standalone="no"?>
<!-- Created with Inkscape (http://www.inkscape.org/) -->

<svg
   width="250mm"
   height="250mm"
   viewBox="0 0 250 250"
   version="1.1"
   id="svg308"
   inkscape:version="1.2.1 (9c6d41e410, 2022-07-14)"
   sodipodi:docname="repr_icon_full.svg"
   xmlns:inkscape="http://www.inkscape.org/namespaces/inkscape"
   xmlns:sodipodi="http://sodipodi.sourceforge.net/DTD/sodipodi-0.dtd"
   xmlns="http://www.w3.org/2000/svg"
   xmlns:svg="http://www.w3.org/2000/svg">
  <sodipodi:namedview
     id="namedview310"
     pagecolor="#ffffff"
     bordercolor="#000000"
     borderopacity="0.25"
     inkscape:showpageshadow="2"
     inkscape:pageopacity="0.0"
     inkscape:pagecheckerboard="0"
     inkscape:deskcolor="#d1d1d1"
     inkscape:document-units="mm"
     showgrid="false"
     inkscape:zoom="0.18641099"
     inkscape:cx="1099.7206"
     inkscape:cy="193.12167"
     inkscape:window-width="1920"
     inkscape:window-height="1017"
     inkscape:window-x="-8"
     inkscape:window-y="-8"
     inkscape:window-maximized="1"
     inkscape:current-layer="layer1" />
  <defs
     id="defs305" />
  <g
     inkscape:label="Layer 1"
     inkscape:groupmode="layer"
     id="layer1">
    <rect
       style="fill:#1872ff;fill-opacity:1;stroke-width:9.32405;stroke-linecap:round;paint-order:stroke fill markers"
       id="rect513"
       width="252.94418"
       height="251.36055"
       x="-1.2601385"
       y="-0.4182542"
       rx="0"
       ry="0" />
    <rect
       style="fill:#ffffff;fill-opacity:1;stroke-width:8.62356;stroke-linecap:round;paint-order:stroke fill markers"
       id="rect2247"
       width="83.673149"
       height="13.623433"
       x="-41.836575"
       y="169.96498"
       rx="3.0457869"
       ry="6.2159834"
       transform="rotate(-45)" />
    <g
       id="g2381"
       transform="translate(102.23311,-111.60174)">
      <g
         id="g2388"
         transform="translate(2.0072715,-19.069074)">
        <g
           id="g2395">
          <g
             id="g2418"
             transform="rotate(-45,200.64484,351.33552)">
            <ellipse
               style="fill:#ffffff;fill-opacity:1;stroke-width:3.35374;stroke-linecap:round;paint-order:stroke fill markers"
               id="path2343"
               cx="242.1297"
               cy="156.99966"
               rx="5.5394459"
               ry="31.804117" />
            <rect
               style="fill:#ffffff;fill-opacity:1;stroke-width:7.47194;stroke-linecap:round;paint-order:stroke fill markers"
               id="rect2349"
               width="3.5616004"
               height="4.8888879"
               x="238.56017"
               y="125.19555"
               rx="0"
               ry="0" />
            <ellipse
               style="fill:#ffffff;fill-opacity:1;stroke-width:3.35374;stroke-linecap:round;paint-order:stroke fill markers"
               id="ellipse2351"
               cx="238.57469"
               cy="156.99966"
               rx="2.7939036"
               ry="31.804117" />
            <ellipse
               style="fill:#1872ff;fill-opacity:1;stroke-width:3.35374;stroke-linecap:round;paint-order:stroke fill markers"
               id="ellipse2345"
               cx="233.53549"
               cy="157.06239"
               rx="5.5256925"
               ry="31.804117" />
            <rect
               style="fill:#ffffff;fill-opacity:1;stroke-width:7.47194;stroke-linecap:round;paint-order:stroke fill markers"
               id="rect2411"
               width="3.5616004"
               height="4.8888879"
               x="238.56017"
               y="183.91489"
               rx="0"
               ry="0" />
          </g>
        </g>
      </g>
    </g>
    <g
       id="g2117"
       transform="matrix(1.2524763,0,0,1.2524763,73.773643,-106.12328)">
      <path
         id="path717"
         style="fill:#ffffff;fill-opacity:0.984314;stroke-width:5.21655;stroke-linecap:round;paint-order:stroke fill markers"
         d="m 61.496505,110.80409 a 38.406319,9.3657045 45 0 0 -2.462899,0.65422 l -0.01033,-0.0103 -0.07597,0.076 a 38.406319,9.3657045 45 0 0 -0.08992,0.0687 38.406319,9.3657045 45 0 0 -0.06821,0.0894 l -9.876916,9.87692 a 38.406319,9.3657045 45 0 0 -0.09147,0.0698 38.406319,9.3657045 45 0 0 -0.07028,0.092 l -0.115756,0.11575 0.0155,0.0155 a 38.406319,9.3657045 45 0 0 20.705197,33.55713 38.406319,9.3657045 45 0 0 33.627399,20.65093 l 0.015,0.015 0.1111,-0.1111 a 38.406319,9.3657045 45 0 0 0.0264,-0.0202 38.406319,9.3657045 45 0 0 0.0692,-0.0755 l 9.941,-9.94099 a 38.406319,9.3657045 45 0 0 0.0263,-0.0201 38.406319,9.3657045 45 0 0 0.0662,-0.0724 l 0.14831,-0.14831 -0.0129,-0.0129 A 38.406319,9.3657045 45 0 0 92.63724,132.12734 38.406319,9.3657045 45 0 0 61.496505,110.80409 Z" />
      <ellipse
         style="fill:#1872ff;fill-opacity:1;stroke-width:5.15909;stroke-linecap:round;paint-order:stroke fill markers"
         id="path234"
         transform="matrix(0.7014672,-0.71270173,0.7014672,0.71270173,0,0)"
         ry="32.546822"
         rx="6.8665619"
         cy="158.45821"
         cx="-49.161369" />
    </g>
    <g
       id="g1337"
       transform="rotate(180,74.14441,180.31626)">
      <g
         id="g1335"
         transform="translate(2.0072715,-19.069074)">
        <g
           id="g1333">
          <g
             id="g1331"
             transform="rotate(-45,200.64484,351.33552)">
            <ellipse
               style="fill:#ffffff;fill-opacity:1;stroke-width:3.35374;stroke-linecap:round;paint-order:stroke fill markers"
               id="ellipse1321"
               cx="242.1297"
               cy="156.99966"
               rx="5.5394459"
               ry="31.804117" />
            <rect
               style="fill:#ffffff;fill-opacity:1;stroke-width:7.47194;stroke-linecap:round;paint-order:stroke fill markers"
               id="rect1323"
               width="3.5616004"
               height="4.8888879"
               x="238.56017"
               y="125.19555"
               rx="0"
               ry="0" />
            <ellipse
               style="fill:#ffffff;fill-opacity:1;stroke-width:3.35374;stroke-linecap:round;paint-order:stroke fill markers"
               id="ellipse1325"
               cx="238.57469"
               cy="156.99966"
               rx="2.7939036"
               ry="31.804117" />
            <ellipse
               style="fill:#1872ff;fill-opacity:1;stroke-width:3.35374;stroke-linecap:round;paint-order:stroke fill markers"
               id="ellipse1327"
               cx="233.53549"
               cy="157.06239"
               rx="5.5256925"
               ry="31.804117" />
            <rect
               style="fill:#ffffff;fill-opacity:1;stroke-width:7.47194;stroke-linecap:round;paint-order:stroke fill markers"
               id="rect1329"
               width="3.5616004"
               height="4.8888879"
               x="238.56017"
               y="183.91489"
               rx="0"
               ry="0" />
          </g>
        </g>
      </g>
    </g>
    <g
       id="g1343"
       transform="matrix(-1.2524763,0,0,-1.2524763,175.74466,354.65224)">
      <path
         id="path1339"
         style="fill:#ffffff;fill-opacity:0.984314;stroke-width:5.21655;stroke-linecap:round;paint-order:stroke fill markers"
         d="m 61.496505,110.80409 a 38.406319,9.3657045 45 0 0 -2.462899,0.65422 l -0.01033,-0.0103 -0.07597,0.076 a 38.406319,9.3657045 45 0 0 -0.08992,0.0687 38.406319,9.3657045 45 0 0 -0.06821,0.0894 l -9.876916,9.87692 a 38.406319,9.3657045 45 0 0 -0.09147,0.0698 38.406319,9.3657045 45 0 0 -0.07028,0.092 l -0.115756,0.11575 0.0155,0.0155 a 38.406319,9.3657045 45 0 0 20.705197,33.55713 38.406319,9.3657045 45 0 0 33.627399,20.65093 l 0.015,0.015 0.1111,-0.1111 a 38.406319,9.3657045 45 0 0 0.0264,-0.0202 38.406319,9.3657045 45 0 0 0.0692,-0.0755 l 9.941,-9.94099 a 38.406319,9.3657045 45 0 0 0.0263,-0.0201 38.406319,9.3657045 45 0 0 0.0662,-0.0724 l 0.14831,-0.14831 -0.0129,-0.0129 A 38.406319,9.3657045 45 0 0 92.63724,132.12734 38.406319,9.3657045 45 0 0 61.496505,110.80409 Z" />
      <ellipse
         style="fill:#1872ff;fill-opacity:1;stroke-width:5.15909;stroke-linecap:round;paint-order:stroke fill markers"
         id="ellipse1341"
         transform="matrix(0.7014672,-0.71270173,0.7014672,0.71270173,0,0)"
         ry="32.546822"
         rx="6.8665619"
         cy="158.45821"
         cx="-49.161369" />
    </g>
  </g>
</svg>
