<?xml version="1.0" encoding="UTF-8" standalone="no"?>
<!-- Created with Inkscape (http://www.inkscape.org/) -->

<svg
   width="1024"
   height="1024"
   viewBox="0 0 1024 1024"
   version="1.1"
   id="svg5"
   sodipodi:docname="repr_icon.svg"
   inkscape:version="1.2.1 (9c6d41e410, 2022-07-14)"
   inkscape:export-filename="repr_icon.png"
   inkscape:export-xdpi="96"
   inkscape:export-ydpi="96"
   xmlns:inkscape="http://www.inkscape.org/namespaces/inkscape"
   xmlns:sodipodi="http://sodipodi.sourceforge.net/DTD/sodipodi-0.dtd"
   xmlns="http://www.w3.org/2000/svg"
   xmlns:svg="http://www.w3.org/2000/svg">
  <sodipodi:namedview
     id="namedview7"
     pagecolor="#ffffff"
     bordercolor="#000000"
     borderopacity="0.25"
     inkscape:showpageshadow="2"
     inkscape:pageopacity="0.0"
     inkscape:pagecheckerboard="false"
     inkscape:deskcolor="#d1d1d1"
     inkscape:document-units="px"
     showgrid="false"
     inkscape:zoom="0.26362494"
     inkscape:cx="-512.09115"
     inkscape:cy="572.78344"
     inkscape:window-width="1920"
     inkscape:window-height="1017"
     inkscape:window-x="1912"
     inkscape:window-y="-8"
     inkscape:window-maximized="1"
     inkscape:current-layer="g1333" />
  <defs
     id="defs2" />
  <g
     inkscape:label="Layer 1"
     inkscape:groupmode="layer"
     id="layer1"
     transform="translate(-8.0237263,-52.150997)">
    <g
       id="g1333"
       transform="translate(48.676318,-38.890873)">
      <rect
         style="fill:#3b83f5;fill-opacity:1;stroke-width:36.3118;stroke-linecap:round;paint-order:stroke fill markers"
         id="rect2113"
         width="1064.7347"
         height="1057.8478"
         x="-61.019962"
         y="74.117981" />
      <g
         id="g2293"
         transform="matrix(4.1924285,0,0,4.1924285,235.2144,-182.58097)">
        <g
           id="g2245">
          <g
             id="g2235"
             transform="translate(-5.3225811,25.903225)">
            <rect
               style="fill:#ffffff;fill-opacity:1;stroke-width:8.77632;stroke-linecap:round;paint-order:stroke fill markers"
               id="rect2173"
               width="158.46487"
               height="158.46487"
               x="-17.586174"
               y="82.255211"
               rx="0"
               ry="39.949127" />
            <rect
               style="fill:#3b83f5;fill-opacity:1;stroke-width:7.52256;stroke-linecap:round;paint-order:stroke fill markers"
               id="rect2227"
               width="135.82704"
               height="135.82704"
               x="-6.2672582"
               y="93.574112"
               rx="0"
               ry="34.242107" />
          </g>
          <rect
             style="fill:#ffffff;fill-opacity:1;stroke-width:7.01388;stroke-linecap:round;paint-order:stroke fill markers"
             id="rect2247"
             width="56.705402"
             height="13.29817"
             x="-175.70595"
             y="165.38112"
             rx="2.0641339"
             ry="6.067575"
             transform="rotate(-45)" />
        </g>
        <g
           id="g2239">
          <g
             id="g2223">
            <g
               id="g2381"
               transform="translate(-17.032253,1.4193549)">
              <g
                 id="g2388"
                 transform="translate(2.0072715,-19.069074)">
                <g
                   id="g2395">
                  <g
                     id="g2418"
                     transform="rotate(-45,200.64484,351.33552)">
                    <g
                       id="g2211">
                      <ellipse
                         style="fill:#ffffff;fill-opacity:1;stroke-width:3.35374;stroke-linecap:round;paint-order:stroke fill markers"
                         id="path2343"
                         cx="242.1297"
                         cy="156.99966"
                         rx="5.5394459"
                         ry="31.804117" />
                      <rect
                         style="fill:#ffffff;fill-opacity:1;stroke-width:7.47194;stroke-linecap:round;paint-order:stroke fill markers"
                         id="rect2349"
                         width="3.5616004"
                         height="4.8888879"
                         x="238.56017"
                         y="125.19555"
                         rx="0"
                         ry="0" />
                      <ellipse
                         style="fill:#ffffff;fill-opacity:1;stroke-width:3.35374;stroke-linecap:round;paint-order:stroke fill markers"
                         id="ellipse2351"
                         cx="238.57469"
                         cy="156.99966"
                         rx="2.7939036"
                         ry="31.804117" />
                      <rect
                         style="fill:#ffffff;fill-opacity:1;stroke-width:7.47194;stroke-linecap:round;paint-order:stroke fill markers"
                         id="rect2411"
                         width="3.5616004"
                         height="4.8888879"
                         x="238.56017"
                         y="183.91489"
                         rx="0"
                         ry="0" />
                    </g>
                    <ellipse
                       style="fill:#3b83f5;fill-opacity:1;stroke-width:3.35374;stroke-linecap:round;paint-order:stroke fill markers"
                       id="ellipse2345"
                       cx="233.53549"
                       cy="157.06239"
                       rx="5.5256925"
                       ry="31.804117" />
                  </g>
                </g>
              </g>
            </g>
          </g>
          <g
             id="g2117"
             transform="matrix(1.2524763,0,0,1.2524763,-45.130324,7.3314681)">
            <path
               id="path717"
               style="fill:#ffffff;fill-opacity:0.984314;stroke-width:5.21655;stroke-linecap:round;paint-order:stroke fill markers"
               d="m 61.496505,110.80409 a 38.406319,9.3657045 45 0 0 -2.462899,0.65422 l -0.01033,-0.0103 -0.07597,0.076 a 38.406319,9.3657045 45 0 0 -0.08992,0.0687 38.406319,9.3657045 45 0 0 -0.06821,0.0894 l -9.876916,9.87692 a 38.406319,9.3657045 45 0 0 -0.09147,0.0698 38.406319,9.3657045 45 0 0 -0.07028,0.092 l -0.115756,0.11575 0.0155,0.0155 a 38.406319,9.3657045 45 0 0 20.705197,33.55713 38.406319,9.3657045 45 0 0 33.627399,20.65093 l 0.015,0.015 0.1111,-0.1111 a 38.406319,9.3657045 45 0 0 0.0264,-0.0202 38.406319,9.3657045 45 0 0 0.0692,-0.0755 l 9.941,-9.94099 a 38.406319,9.3657045 45 0 0 0.0263,-0.0201 38.406319,9.3657045 45 0 0 0.0662,-0.0724 l 0.14831,-0.14831 -0.0129,-0.0129 A 38.406319,9.3657045 45 0 0 92.63724,132.12734 38.406319,9.3657045 45 0 0 61.496505,110.80409 Z" />
            <ellipse
               style="fill:#3b83f5;fill-opacity:1;stroke-width:5.15909;stroke-linecap:round;paint-order:stroke fill markers"
               id="path234"
               transform="matrix(0.7014672,-0.71270173,0.7014672,0.71270173,0,0)"
               ry="32.546822"
               rx="6.8665619"
               cy="158.45821"
               cx="-49.161369" />
          </g>
        </g>
      </g>
    </g>
  </g>
</svg>
